<svg width="275" height="63" viewBox="0 0 275 63" fill="none" xmlns="http://www.w3.org/2000/svg">
<rect width="275" height="63" rx="7" fill="url(#paint0_linear)"/>
<path d="M94.1719 27.3281C94.1719 28.4919 93.7853 29.444 93.0122 30.1846C92.2472 30.9251 91.1852 31.3971 89.8262 31.6006V31.6738C91.3887 31.861 92.5768 32.3249 93.3906 33.0654C94.2126 33.7979 94.6235 34.7581 94.6235 35.9463C94.6235 37.6064 93.9725 38.9045 92.6704 39.8403C91.3765 40.7762 89.5861 41.2441 87.2993 41.2441C84.923 41.2441 83.0228 40.9227 81.5986 40.2798V37.7285C82.388 38.1029 83.271 38.3918 84.2476 38.5952C85.2323 38.7987 86.1315 38.9004 86.9453 38.9004C90.0785 38.9004 91.645 37.875 91.645 35.8242C91.645 34.8802 91.173 34.16 90.229 33.6636C89.2931 33.1672 87.9015 32.9189 86.0542 32.9189H83.9058V30.5752H85.9199C89.4762 30.5752 91.2544 29.6271 91.2544 27.731C91.2544 26.9741 90.9492 26.376 90.3389 25.9365C89.7367 25.4971 88.8903 25.2773 87.7998 25.2773C86.9372 25.2773 86.1152 25.3913 85.334 25.6191C84.5527 25.847 83.743 26.2336 82.9048 26.7788L81.5742 24.8013C83.4053 23.5317 85.5618 22.897 88.0439 22.897C89.932 22.897 91.4253 23.2998 92.5239 24.1055C93.6226 24.9111 94.1719 25.9854 94.1719 27.3281ZM106.354 41L105.781 39.1201H105.683C105.032 39.9421 104.377 40.5036 103.718 40.8047C103.059 41.0977 102.212 41.2441 101.179 41.2441C99.8522 41.2441 98.8146 40.8861 98.0659 40.1699C97.3254 39.4538 96.9551 38.4406 96.9551 37.1304C96.9551 35.7388 97.4718 34.689 98.5054 33.981C99.5389 33.2729 101.114 32.8864 103.229 32.8213L105.561 32.748V32.0278C105.561 31.1652 105.358 30.5223 104.951 30.0991C104.552 29.6678 103.929 29.4521 103.083 29.4521C102.391 29.4521 101.728 29.5539 101.093 29.7573C100.458 29.9608 99.8481 30.2008 99.2622 30.4775L98.3345 28.4268C99.0669 28.0443 99.8685 27.7554 100.739 27.5601C101.61 27.3566 102.432 27.2549 103.205 27.2549C104.922 27.2549 106.216 27.6292 107.087 28.3779C107.966 29.1266 108.405 30.3026 108.405 31.9058V41H106.354ZM102.082 39.0469C103.124 39.0469 103.958 38.758 104.584 38.1802C105.219 37.5942 105.537 36.7764 105.537 35.7266V34.5547L103.803 34.6279C102.452 34.6768 101.468 34.9046 100.849 35.3115C100.239 35.7103 99.9336 36.3247 99.9336 37.1548C99.9336 37.757 100.113 38.2249 100.471 38.5586C100.829 38.8841 101.366 39.0469 102.082 39.0469ZM120.783 27.499H123.933L118.354 34.0054L124.409 41H121.113L115.278 34.1519V41H112.409V27.499H115.278V34.0542L120.783 27.499ZM135.09 41L134.516 39.1201H134.418C133.767 39.9421 133.112 40.5036 132.453 40.8047C131.794 41.0977 130.948 41.2441 129.914 41.2441C128.588 41.2441 127.55 40.8861 126.801 40.1699C126.061 39.4538 125.69 38.4406 125.69 37.1304C125.69 35.7388 126.207 34.689 127.241 33.981C128.274 33.2729 129.849 32.8864 131.965 32.8213L134.296 32.748V32.0278C134.296 31.1652 134.093 30.5223 133.686 30.0991C133.287 29.6678 132.665 29.4521 131.818 29.4521C131.127 29.4521 130.463 29.5539 129.829 29.7573C129.194 29.9608 128.583 30.2008 127.998 30.4775L127.07 28.4268C127.802 28.0443 128.604 27.7554 129.475 27.5601C130.345 27.3566 131.167 27.2549 131.94 27.2549C133.658 27.2549 134.951 27.6292 135.822 28.3779C136.701 29.1266 137.141 30.3026 137.141 31.9058V41H135.09ZM130.817 39.0469C131.859 39.0469 132.693 38.758 133.32 38.1802C133.955 37.5942 134.272 36.7764 134.272 35.7266V34.5547L132.539 34.6279C131.188 34.6768 130.203 34.9046 129.584 35.3115C128.974 35.7103 128.669 36.3247 128.669 37.1548C128.669 37.757 128.848 38.2249 129.206 38.5586C129.564 38.8841 130.101 39.0469 130.817 39.0469ZM144.123 32.8945C145.433 32.8945 146.398 32.7521 147.016 32.4673C147.635 32.1743 147.944 31.7267 147.944 31.1245C147.944 30.0259 146.967 29.4766 145.014 29.4766C143.712 29.4766 142.382 29.7695 141.022 30.3555L140.095 28.2192C141.665 27.5763 143.399 27.2549 145.295 27.2549C146.971 27.2549 148.273 27.5641 149.201 28.1826C150.129 28.793 150.593 29.6719 150.593 30.8193C150.593 32.333 149.726 33.3258 147.993 33.7979V33.8955C149.075 34.1885 149.848 34.6076 150.312 35.1528C150.784 35.6981 151.02 36.3735 151.02 37.1792C151.02 38.4162 150.475 39.4049 149.384 40.1455C148.302 40.8779 146.788 41.2441 144.843 41.2441C142.719 41.2441 141.096 40.9634 139.973 40.4019V37.9238C141.462 38.6237 143.004 38.9736 144.599 38.9736C145.747 38.9736 146.63 38.8149 147.248 38.4976C147.875 38.172 148.188 37.6797 148.188 37.0205C148.188 36.3451 147.875 35.8486 147.248 35.5312C146.621 35.2139 145.653 35.0552 144.343 35.0552H142.695V32.8945H144.123ZM162.58 41L162.006 39.1201H161.909C161.258 39.9421 160.603 40.5036 159.943 40.8047C159.284 41.0977 158.438 41.2441 157.404 41.2441C156.078 41.2441 155.04 40.8861 154.292 40.1699C153.551 39.4538 153.181 38.4406 153.181 37.1304C153.181 35.7388 153.697 34.689 154.731 33.981C155.764 33.2729 157.339 32.8864 159.455 32.8213L161.787 32.748V32.0278C161.787 31.1652 161.583 30.5223 161.176 30.0991C160.778 29.6678 160.155 29.4521 159.309 29.4521C158.617 29.4521 157.954 29.5539 157.319 29.7573C156.684 29.9608 156.074 30.2008 155.488 30.4775L154.56 28.4268C155.292 28.0443 156.094 27.7554 156.965 27.5601C157.836 27.3566 158.658 27.2549 159.431 27.2549C161.148 27.2549 162.442 27.6292 163.312 28.3779C164.191 29.1266 164.631 30.3026 164.631 31.9058V41H162.58ZM158.308 39.0469C159.349 39.0469 160.183 38.758 160.81 38.1802C161.445 37.5942 161.762 36.7764 161.762 35.7266V34.5547L160.029 34.6279C158.678 34.6768 157.693 34.9046 157.075 35.3115C156.464 35.7103 156.159 36.3247 156.159 37.1548C156.159 37.757 156.338 38.2249 156.696 38.5586C157.054 38.8841 157.591 39.0469 158.308 39.0469ZM178.779 27.499V29.7451H174.384V41H171.503V29.7451H167.109V27.499H178.779ZM184.248 32.8945H187.629C191.397 32.8945 193.281 34.1966 193.281 36.8008C193.281 38.1761 192.801 39.2218 191.84 39.938C190.88 40.646 189.476 41 187.629 41H181.379V27.499H184.248V32.8945ZM190.4 36.874C190.4 36.1986 190.144 35.7266 189.631 35.458C189.118 35.1895 188.394 35.0552 187.458 35.0552H184.248V38.876H187.507C188.451 38.876 189.167 38.7051 189.655 38.3633C190.152 38.0215 190.4 37.5251 190.4 36.874Z" fill="black"/>
<defs>
<linearGradient id="paint0_linear" x1="29.3333" y1="57.8308" x2="172.746" y2="-162.583" gradientUnits="userSpaceOnUse">
<stop stop-color="#35CC79"/>
<stop offset="1" stop-color="#347D55" stop-opacity="0.65"/>
</linearGradient>
</defs>
</svg>
